<?xml version="1.0" encoding="utf-8"?>
<!-- Generator: Adobe Illustrator 24.1.1, SVG Export Plug-In . SVG Version: 6.00 Build 0)  -->
<svg version="1.1" id="Layer_1" xmlns="http://www.w3.org/2000/svg" xmlns:xlink="http://www.w3.org/1999/xlink" x="0px" y="0px"
	 viewBox="0 0 150 150" style="enable-background:new 0 0 150 150;" xml:space="preserve">
<style type="text/css">
	.st0{fill:url(#SVGID_1_);}
	.st1{fill:url(#SVGID_2_);}
	.st2{fill:#EAC24E;}
	.st3{fill:url(#SVGID_3_);}
	.st4{fill:url(#SVGID_4_);}
	.st5{fill:url(#SVGID_5_);}
	.st6{fill:url(#SVGID_6_);}
	.st7{fill:url(#SVGID_7_);}
	.st8{fill:url(#SVGID_8_);}
	.st9{fill:url(#SVGID_9_);}
	.st10{fill:url(#SVGID_10_);}
	.st11{fill:url(#SVGID_11_);}
	.st12{fill:url(#SVGID_12_);}
	.st13{fill:url(#SVGID_13_);}
	.st14{opacity:0.6;fill:#4C4C4C;enable-background:new    ;}
	.st15{fill:url(#SVGID_14_);}
</style>
<g>
	<g>
		<g>
			<g>
				<g>
					<g>
						
							<linearGradient id="SVGID_1_" gradientUnits="userSpaceOnUse" x1="87.7693" y1="36.7721" x2="67.2714" y2="36.7721" gradientTransform="matrix(0.5 0.866 -0.866 0.5 102.4519 -27.4519)">
							<stop  offset="0" style="stop-color:#D9D9D9"/>
							<stop  offset="0.5915" style="stop-color:#B7B7B7"/>
							<stop  offset="1" style="stop-color:#919191"/>
						</linearGradient>
						<path class="st0" d="M76.9,77.9c3.5-2.2,13-7.7,27-11.9c18.9-5.7,48.8-11.6,39.4-26.1c-9.5-14.7-60.4,22.3-70.4,31.8
							L76.9,77.9z"/>
						
							<linearGradient id="SVGID_2_" gradientUnits="userSpaceOnUse" x1="72.6332" y1="58.8319" x2="72.3815" y2="78.714" gradientTransform="matrix(0.5 0.866 -0.866 0.5 102.4519 -27.4519)">
							<stop  offset="0.3172" style="stop-color:#F6F6F6"/>
							<stop  offset="1" style="stop-color:#C0C0C0"/>
						</linearGradient>
						<path class="st1" d="M76.9,77.9c7.4-4.1,9.7-17.3,32.6-30.4c16.7-9.6,27.9-13.6,33.7-7.7c-9.5-14.7-60.4,22.3-70.4,31.8
							L76.9,77.9z"/>
					</g>
					<path class="st2" d="M133.1,44.4c2,3.1,3.8,6.3,5.4,9.5c5.8-3.6,8.5-8.1,4.7-14c-2.5-3.9-8-4.1-14.9-2.2
						C130,39.8,131.6,42,133.1,44.4z"/>
				</g>
			</g>
		</g>
		<g>
			<g>
				<g>
					<g>
						
							<linearGradient id="SVGID_3_" gradientUnits="userSpaceOnUse" x1="81.5972" y1="36.7522" x2="62.2855" y2="36.7522" gradientTransform="matrix(-0.5 0.866 -0.866 -0.5 177.4519 47.5481)">
							<stop  offset="0" style="stop-color:#D9D9D9"/>
							<stop  offset="0.5915" style="stop-color:#B7B7B7"/>
							<stop  offset="1" style="stop-color:#919191"/>
						</linearGradient>
						<path class="st3" d="M73.1,77.9c4,1.6,14,6.1,25.1,14.8c15,11.7,35.7,31.7,45.2,17.2c9.5-14.7-52-35.3-66.2-38.2L73.1,77.9z"
							/>
						
							<linearGradient id="SVGID_4_" gradientUnits="userSpaceOnUse" x1="70.061" y1="58.7099" x2="69.8099" y2="78.5413" gradientTransform="matrix(-0.5 0.866 -0.866 -0.5 177.4519 47.5481)">
							<stop  offset="0.3172" style="stop-color:#F6F6F6"/>
							<stop  offset="1" style="stop-color:#C0C0C0"/>
						</linearGradient>
						<path class="st4" d="M73.1,77.9c7.7,3.6,21.7-1.1,46,9.9c17.7,8,27.2,14.6,24.3,22.1c9.5-14.7-52-35.3-66.2-38.2L73.1,77.9z"
							/>
					</g>
					<path class="st2" d="M134,104.3c-2,3.1-4.2,6.1-6.6,8.9c6.5,2.7,12.2,2.5,16-3.4c2.5-3.9,0-8.2-5.3-12.5
						C136.9,99.6,135.5,102,134,104.3z"/>
				</g>
			</g>
		</g>
		<g>
			<g>
				<g>
					<g>
						
							<linearGradient id="SVGID_5_" gradientUnits="userSpaceOnUse" x1="85.524" y1="40" x2="64.0176" y2="40" gradientTransform="matrix(-1 0 0 -1 150 150)">
							<stop  offset="0" style="stop-color:#D9D9D9"/>
							<stop  offset="0.5915" style="stop-color:#B7B7B7"/>
							<stop  offset="1" style="stop-color:#919191"/>
						</linearGradient>
						<path class="st5" d="M71.2,75c0.4,3.8,1,13.9-1.8,26.7c-3.9,17.4-13,43.3,5.8,43.3c19.1,0,8.4-57.6,4.2-70H71.2z"/>
						
							<linearGradient id="SVGID_6_" gradientUnits="userSpaceOnUse" x1="71.1177" y1="60.0727" x2="70.8887" y2="78.1703" gradientTransform="matrix(-1 0 0 -1 150 150)">
							<stop  offset="0.3172" style="stop-color:#F6F6F6"/>
							<stop  offset="1" style="stop-color:#C0C0C0"/>
						</linearGradient>
						<path class="st6" d="M71.3,75c0.4,7.7,12,16.1,13.4,40.3c1,17.6-0.7,28.2-9.4,29.7c19.1,0,8.4-57.6,4.2-70H71.3z"/>
					</g>
					<path class="st2" d="M75.9,135c-4.1,0-8-0.2-12-0.6c0.6,6.3,3.7,10.6,11.3,10.6c5.1,0,8.1-4.1,9.6-10.3
						C81.9,134.9,78.9,135,75.9,135z"/>
				</g>
			</g>
		</g>
		<g>
			<g>
				<g>
					<g>
						
							<linearGradient id="SVGID_7_" gradientUnits="userSpaceOnUse" x1="87.7693" y1="36.7721" x2="67.2714" y2="36.7721" gradientTransform="matrix(-0.5 -0.866 0.866 -0.5 47.5481 177.4519)">
							<stop  offset="0" style="stop-color:#D9D9D9"/>
							<stop  offset="0.5915" style="stop-color:#B7B7B7"/>
							<stop  offset="1" style="stop-color:#919191"/>
						</linearGradient>
						<path class="st7" d="M73.1,72.1c-3.5,2.2-13,7.7-27,11.9C27.3,89.7-2.6,95.7,6.8,110.2c9.5,14.7,60.4-22.3,70.4-31.8
							L73.1,72.1z"/>
						
							<linearGradient id="SVGID_8_" gradientUnits="userSpaceOnUse" x1="72.6332" y1="58.8319" x2="72.3815" y2="78.714" gradientTransform="matrix(-0.5 -0.866 0.866 -0.5 47.5481 177.4519)">
							<stop  offset="0.3172" style="stop-color:#F6F6F6"/>
							<stop  offset="1" style="stop-color:#C0C0C0"/>
						</linearGradient>
						<path class="st8" d="M73.1,72.1c-7.4,4.1-9.7,17.3-32.6,30.4c-16.7,9.6-27.9,13.6-33.7,7.7c9.5,14.7,60.4-22.3,70.4-31.8
							L73.1,72.1z"/>
					</g>
					<path class="st2" d="M16.9,105.6c-2-3.1-3.8-6.3-5.4-9.5c-5.8,3.6-8.5,8.1-4.7,14c2.5,3.9,8,4.1,14.9,2.2
						C20,110.2,18.4,108,16.9,105.6z"/>
				</g>
			</g>
		</g>
		<g>
			<g>
				<g>
					<g>
						
							<linearGradient id="SVGID_9_" gradientUnits="userSpaceOnUse" x1="81.5972" y1="36.7522" x2="62.2855" y2="36.7522" gradientTransform="matrix(0.5 -0.866 0.866 0.5 -27.4519 102.4519)">
							<stop  offset="0" style="stop-color:#D9D9D9"/>
							<stop  offset="0.5915" style="stop-color:#B7B7B7"/>
							<stop  offset="1" style="stop-color:#919191"/>
						</linearGradient>
						<path class="st9" d="M76.9,72.1c-4-1.6-14-6.1-25.1-14.8C36.8,45.7,16,25.7,6.6,40.2c-9.5,14.7,52,35.3,66.2,38.2L76.9,72.1z"
							/>
						
							<linearGradient id="SVGID_10_" gradientUnits="userSpaceOnUse" x1="70.061" y1="58.7099" x2="69.8099" y2="78.5413" gradientTransform="matrix(0.5 -0.866 0.866 0.5 -27.4519 102.4519)">
							<stop  offset="0.3172" style="stop-color:#F6F6F6"/>
							<stop  offset="1" style="stop-color:#C0C0C0"/>
						</linearGradient>
						<path class="st10" d="M76.9,72.1c-7.7-3.6-21.7,1.1-46-9.9c-17.7-8-27.2-14.6-24.3-22.1c-9.5,14.7,52,35.3,66.2,38.2
							L76.9,72.1z"/>
					</g>
					<path class="st2" d="M16,45.7c2-3.1,4.2-6.1,6.6-8.9c-6.5-2.7-12.2-2.5-16,3.4c-2.5,3.9,0,8.2,5.3,12.5
						C13.1,50.4,14.5,48,16,45.7z"/>
				</g>
			</g>
		</g>
		<g>
			<g>
				<g>
					<g>
						<linearGradient id="SVGID_11_" gradientUnits="userSpaceOnUse" x1="85.524" y1="40" x2="64.0176" y2="40">
							<stop  offset="0" style="stop-color:#D9D9D9"/>
							<stop  offset="0.5915" style="stop-color:#B7B7B7"/>
							<stop  offset="1" style="stop-color:#919191"/>
						</linearGradient>
						<path class="st11" d="M78.8,75c-0.4-3.8-1-13.9,1.8-26.7C84.5,31,93.7,5,74.8,5c-19.1,0-8.4,57.6-4.2,70H78.8z"/>
						<linearGradient id="SVGID_12_" gradientUnits="userSpaceOnUse" x1="71.1177" y1="60.0727" x2="70.8887" y2="78.1703">
							<stop  offset="0.3172" style="stop-color:#F6F6F6"/>
							<stop  offset="1" style="stop-color:#C0C0C0"/>
						</linearGradient>
						<path class="st12" d="M78.7,75c-0.4-7.7-12-16.1-13.4-40.3C64.4,17.1,66,6.5,74.7,5c-19.1,0-8.4,57.6-4.2,70H78.7z"/>
					</g>
					<path class="st2" d="M74.1,15c4.1,0,8,0.2,12,0.6C85.5,9.4,82.4,5,74.8,5c-5.1,0-8.1,4.1-9.6,10.3C68.1,15.1,71.1,15,74.1,15z"
						/>
				</g>
			</g>
		</g>
	</g>
	<g>
		
			<radialGradient id="SVGID_13_" cx="5.6979" cy="146.3021" r="1" gradientTransform="matrix(12.9842 0 0 -12.9842 1.0171 1974.616)" gradientUnits="userSpaceOnUse">
			<stop  offset="0.7542" style="stop-color:#858585"/>
			<stop  offset="0.7799" style="stop-color:#A0A0A0"/>
			<stop  offset="0.8283" style="stop-color:#CECECE"/>
			<stop  offset="0.8656" style="stop-color:#EAEAEA"/>
			<stop  offset="0.8871" style="stop-color:#F5F5F5"/>
			<stop  offset="1" style="stop-color:#B9B9B9"/>
		</radialGradient>
		<path class="st13" d="M75,88c7.2,0,13-5.8,13-13c0-7.2-5.8-13-13-13c-7.2,0-13,5.8-13,13C62,82.2,67.8,88,75,88z"/>
		<path class="st14" d="M75,85c-5.5,0-10-4.5-10-10s4.5-10,10-10s10,4.5,10,10S80.5,85,75,85z"/>
		
			<radialGradient id="SVGID_14_" cx="4.925" cy="147.075" r="1" gradientTransform="matrix(15.5415 0 0 -15.5415 -1.2937 2372.7983)" gradientUnits="userSpaceOnUse">
			<stop  offset="0" style="stop-color:#FEEFA2"/>
			<stop  offset="1" style="stop-color:#FDC50A"/>
		</radialGradient>
		<path class="st15" d="M75,86c6.1,0,11-4.9,11-11c0-6.1-4.9-11-11-11c-6.1,0-11,4.9-11,11C64,81.1,68.9,86,75,86z"/>
	</g>
</g>
</svg>
